<?xml version="1.0" standalone="no"?>
<!DOCTYPE svg PUBLIC "-//W3C//DTD SVG 20010904//EN"
 "http://www.w3.org/TR/2001/REC-SVG-20010904/DTD/svg10.dtd">
<svg version="1.0" xmlns="http://www.w3.org/2000/svg"
 width="700.000000pt" height="700.000000pt" viewBox="0 0 700.000000 700.000000"
 preserveAspectRatio="xMidYMid meet">
<metadata>
Created by potrace 1.11, written by Peter Selinger 2001-2013
</metadata>
<g transform="translate(0.000000,700.000000) scale(0.100000,-0.100000)"
fill="#000000" stroke="none">
<path d="M3445 6985 c-55 -19 -774 -239 -815 -250 -8 -2 -28 -8 -45 -14 -28
-9 -258 -79 -280 -85 -5 -2 -17 -6 -25 -9 -8 -3 -31 -10 -50 -15 -48 -14 -529
-160 -560 -172 -14 -4 -63 -20 -110 -34 -47 -13 -211 -63 -365 -111 -154 -47
-325 -99 -380 -116 -55 -17 -131 -41 -169 -53 l-69 -22 149 -48 c82 -26 156
-50 164 -53 8 -4 17 -7 20 -8 5 -1 788 -258 1095 -360 72 -24 393 -129 715
-235 322 -106 622 -205 668 -221 46 -16 93 -29 105 -29 12 0 170 50 352 111
181 62 656 222 1055 356 1145 385 1433 483 1437 487 2 1 -50 20 -114 41 -65
20 -158 50 -208 66 -98 31 -707 222 -955 299 -154 48 -376 117 -670 210 -373
117 -806 253 -865 271 -35 11 -29 11 -80 -6z"/>
<path d="M6 4473 c2 -648 6 -1581 9 -2073 2 -492 4 -985 5 -1095 l0 -201 77
-26 c43 -14 227 -78 408 -143 368 -130 582 -206 838 -296 94 -33 240 -85 322
-114 83 -29 312 -110 510 -180 198 -69 376 -132 395 -140 19 -7 103 -37 185
-66 83 -28 193 -67 245 -85 52 -19 98 -34 103 -34 4 0 7 1033 7 2295 0 1262
-1 2295 -3 2295 -2 0 -412 138 -913 306 -500 168 -983 330 -1074 360 -91 30
-174 58 -185 63 -11 5 -49 18 -85 29 -36 12 -240 80 -454 151 -214 72 -391
131 -392 131 -2 0 -1 -530 2 -1177z"/>
<path d="M6945 5605 c-22 -8 -168 -55 -325 -105 -157 -51 -409 -132 -560 -180
-151 -49 -383 -123 -515 -165 -132 -42 -265 -85 -295 -95 -30 -11 -176 -58
-325 -105 -246 -79 -692 -222 -905 -291 -47 -15 -91 -29 -99 -30 -7 -2 -18 -7
-23 -12 -5 -5 -10 -667 -13 -1553 -9 -3294 -9 -3064 6 -3061 14 3 934 327
1299 457 180 64 776 275 960 340 36 12 142 50 235 83 94 33 270 95 393 139
l222 78 0 2257 c0 1242 -3 2258 -7 2257 -5 0 -26 -7 -48 -14z"/>
</g>
</svg>
